<svg width="23" height="23" viewBox="0 0 23 23" fill="none" xmlns="http://www.w3.org/2000/svg">
<path d="M11.0443 0C4.95456 0 0 4.95456 0 11.0443C0 17.1341 4.95456 22.0886 11.0443 22.0886C17.1341 22.0886 22.0886 17.1346 22.0886 11.0443C22.0886 4.95408 17.1341 0 11.0443 0ZM15.719 16.0085C15.5803 16.2168 15.3518 16.3291 15.119 16.3291C14.9818 16.3291 14.843 16.2902 14.7202 16.2082C13.5331 15.4166 11.52 14.8886 9.84 14.8891C8.05728 14.8901 6.72096 15.3278 6.70752 15.3322C6.3312 15.4598 5.92272 15.2544 5.79696 14.8771C5.6712 14.4998 5.8752 14.0918 6.25248 13.9666C6.31584 13.9454 7.8264 13.4506 9.84 13.4496C11.52 13.4486 13.8566 13.9018 15.5194 15.0101C15.8506 15.2309 15.9398 15.6778 15.719 16.0085ZM17.1552 13.0613C16.9992 13.3118 16.7299 13.4496 16.4549 13.4496C16.3061 13.4496 16.1554 13.4098 16.02 13.3248C13.8677 11.9837 11.6558 11.7 9.75024 11.7168C7.59888 11.736 5.87856 12.1464 5.84928 12.155C5.41392 12.2789 4.956 12.0245 4.83168 11.5872C4.70736 11.149 4.96224 10.6934 5.4 10.5696C5.53296 10.5317 7.24992 10.1093 9.60048 10.0896C11.7437 10.0718 14.4144 10.3824 16.8922 11.9261C17.2776 12.1661 17.3962 12.6749 17.1552 13.0613ZM18.588 9.61488C18.409 9.9192 18.0883 10.0886 17.759 10.0886C17.5939 10.0886 17.4269 10.0459 17.2738 9.95664C14.7653 8.484 11.7154 8.17152 9.59856 8.16864C9.58848 8.16864 9.5784 8.16864 9.56832 8.16864C7.00848 8.16864 5.03712 8.61888 5.01744 8.62368C4.5 8.74224 3.98496 8.42256 3.86496 7.90608C3.74496 7.39008 4.06512 6.87456 4.58112 6.75408C4.66992 6.73344 6.77616 6.24864 9.56832 6.24864C9.57936 6.24864 9.5904 6.24864 9.60144 6.24864C11.9558 6.252 15.3667 6.61008 18.2462 8.30064C18.7032 8.56944 18.8563 9.15792 18.588 9.61488Z" fill="#434343"/>
</svg>
