<svg width="41" height="36" viewBox="0 0 41 36" fill="none" xmlns="http://www.w3.org/2000/svg">
<path d="M39.2643 19.701C38.2801 18.6347 36.9852 17.9239 35.6901 17.6192L29.6295 15.1819L35.0167 13.5064C36.4154 13.354 37.7103 12.7447 38.7981 11.7292C41.5435 9.1904 41.7508 4.87447 39.0571 2.13257C37.6586 0.710839 35.8455 0 34.0325 0C32.3232 0 30.6137 0.609291 29.2669 1.82792C26.5215 4.36673 26.3144 8.68266 29.008 11.4246L29.0597 11.4753L24.2941 12.9986L7.04477 6.0423L1.39856 7.56557L29.5259 19.0917L29.4741 19.1425C26.6251 21.6305 26.3661 25.9464 28.9043 28.7391C30.3029 30.2623 32.1677 31.024 34.0325 31.024C35.1203 31.024 36.2599 30.7701 37.2441 30.2623C37.3477 31.481 36.8815 32.6996 35.8455 33.5628L38.0729 36C40.5075 33.8674 41.181 30.5162 39.9377 27.6728C41.5435 25.134 41.3363 21.8843 39.2643 19.701ZM31.4943 4.21438C32.1677 3.60509 33.0483 3.24965 33.9808 3.24965C34.965 3.24965 35.8973 3.60509 36.5707 4.31593C37.9694 5.73765 37.8658 7.97182 36.4154 9.29195C35.742 9.90128 34.8614 10.2567 33.9289 10.2567C32.9447 10.2567 32.0123 9.90129 31.339 9.1904C29.9922 7.76867 30.0439 5.58536 31.4943 4.21438ZM36.5189 26.8604C35.8455 27.4697 35.0167 27.7743 34.1361 27.7743C33.1002 27.7743 32.1677 27.3173 31.4943 26.5557C30.8209 25.8449 30.562 24.9309 30.562 24.017C30.6137 23.103 31.08 22.2398 31.8051 21.5797C32.4785 20.9704 33.3074 20.6658 34.188 20.6658C35.2239 20.6658 36.1563 21.1227 36.8297 21.8843C38.1247 23.2553 37.9694 25.5402 36.5189 26.8604Z" fill="#FDFDFD"/>
<path d="M0 20.6674L5.5426 22.6477L21.8078 17.6209L16.576 15.4375L0 20.6674Z" fill="#FDFDFD"/>
</svg>
